<?xml version="1.0" encoding="utf-8"?>
<!-- Generator: Adobe Illustrator 24.1.1, SVG Export Plug-In . SVG Version: 6.00 Build 0)  -->
<svg version="1.1" id="Layer_1" xmlns="http://www.w3.org/2000/svg" xmlns:xlink="http://www.w3.org/1999/xlink" x="0px" y="0px"
	 viewBox="0 0 573.18 573.18" style="enable-background:new 0 0 573.18 573.18;" xml:space="preserve">
<style type="text/css">
	.st0{fill:#153D68;}
	.st1{fill:#FBCF20;}
	.st2{fill:#DF1C5E;}
	.st3{fill:#153E68;}
	.st4{fill:#153F68;}
	.st5{fill:none;}
</style>
<g>
	<g>
		<path class="st0" d="M275.26,259.74l-19.21,2.84c-7.06,1.04-11.94,7.61-10.89,14.67v0l18.8-2.78c3.77-0.56,7.28,2.06,7.81,5.83
			l6.23,43.96h6.52L275.26,259.74z"/>
		<path class="st1" d="M284.52,324.27h6.53l-7.69-53.96c-0.53-3.74,2.06-7.21,5.8-7.77l6.1-0.9c7.06-1.04,11.94-7.61,10.89-14.67v0
			l-24.01,3.55c-4.44,0.66-7.51,4.78-6.88,9.22v0l0.04-0.01L284.52,324.27z"/>
		<polygon class="st2" points="284.52,324.27 275.3,259.74 275.26,259.74 284.52,324.27 		"/>
		<path class="st0" d="M102.74,290.38l-4.6-30.64l-19.25,2.85c-7.06,1.04-11.94,7.61-10.89,14.67v0l18.86-2.79
			c3.75-0.55,7.24,2.03,7.8,5.78l6.63,44.03h6.52L102.74,290.38z"/>
		<path class="st1" d="M128.99,246.97L128.99,246.97l-23.96,3.54c-4.46,0.66-7.54,4.81-6.87,9.27l4.58,30.59l5.09,33.9h6.52
			l-8.09-53.91c-0.56-3.76,2.03-7.26,5.79-7.82l6.05-0.89C125.15,260.6,130.03,254.03,128.99,246.97z"/>
		<polygon class="st2" points="107.83,324.27 102.74,290.38 107.81,324.27 		"/>
		<g>
			<polygon class="st0" points="160.51,259.13 158.26,259.13 146.78,259.13 144.53,259.13 121.23,324.2 134.95,324.2 152.52,275.16 
				170.09,324.2 183.82,324.2 			"/>
		</g>
		<path class="st0" d="M127.82,320.26L127.82,320.26c-2.7-6.83,0.65-14.56,7.49-17.25l34.17-13.49v0c2.7,6.83-0.65,14.56-7.49,17.25
			L127.82,320.26z"/>
		<g>
			<path class="st3" d="M200.58,257.54l7.57,67.92l-9.7,1.08l-7.57-67.92L200.58,257.54z"/>
		</g>
		<g>
			<path class="st3" d="M337.36,315.94l31.16-5.97l1.86,9.68l-40.94,7.85l-13-67.79l40.85-7.83l1.86,9.68l-31.07,5.96l3.62,18.89
				l30.39-5.83l1.87,9.78l-30.39,5.83L337.36,315.94z"/>
		</g>
		<g>
			<path class="st4" d="M509.4,321.91h-10.74l-6.15-5.76c-15.23,10.06-35.44,8.2-46.18-3.71c-5.96-6.54-10.15-15.03-10.15-24.7
				s4-18.35,10.15-24.7c6.25-6.35,15.04-10.35,24.6-10.35c9.66,0,18.35,4,24.7,10.35c6.15,6.35,10.15,15.03,10.15,24.7
				c0,8.1-2.83,15.42-7.42,21.38l11.03,10.64V321.91z M467.61,292.43h11.91l11.62,10.54c3.03-4.1,4.69-9.76,4.69-15.23
				c0-6.93-2.93-13.18-7.32-17.67c-4.49-4.59-10.74-7.42-17.57-7.42c-6.74,0-12.98,2.83-17.57,7.42
				c-4.39,4.49-7.32,10.74-7.32,17.67s2.93,13.28,7.32,17.77c8.49,8.49,20.99,10.06,31.44,3.81l-17.18-15.33V292.43z M467.61,293.99
				v-1.56V293.99z"/>
			<polygon class="st1" points="477.49,289.04 463.3,289.04 463.3,290.95 483.95,309.45 498.97,323.54 512.74,323.54 512.74,320.72 
							"/>
		</g>
		<g>
			<path class="st3" d="M389.85,309.36l31.16-5.97l1.86,9.68l-40.94,7.85l-13-67.79l40.85-7.83l1.86,9.68l-31.07,5.96l3.62,18.89
				l30.39-5.83l1.87,9.78l-30.39,5.83L389.85,309.36z"/>
		</g>
	</g>
</g>
<g>
	<path class="st5" d="M209.75,222.89"/>
	<path class="st0" d="M226.69,235.59L226.69,235.59l67.82-9.98c9.33-1.37,15.79-10.03,14.45-19.36l-2.45-17.1l-50.94,7.54
		C236.85,199.45,223.92,216.87,226.69,235.59z"/>
	<path class="st1" d="M371.46,155.28L371.46,155.28l-63.65,9.42c-11.77,1.74-19.92,12.67-18.23,24.45v0l0.1-0.01l2.42,16.97
		c1.34,9.39,10.06,15.89,19.44,14.51h0l-1.78-12.52c-0.7-4.9,2.69-9.44,7.59-10.16l25.24-3.74
		C361.3,191.42,374.23,174,371.46,155.28z"/>
</g>
<g>
	<path class="st0" d="M143.52,343.32c3.94,0,5.58,4.79,2.6,7.04c1.75,0.74,2.38,2.36,2.38,3.8c0,2.3-1.51,4.61-4.44,4.61h-6.91
		v-15.46H143.52z M139.35,349.57h4.13c2.41,0,2.6-4.16,0.04-4.16h-4.18V349.57z M139.35,356.64h4.72c1.49,0,2.23-1.25,2.23-2.45
		c0-1.2-0.74-2.43-2.23-2.43h-4.72V356.64z"/>
	<path class="st0" d="M155.82,354.19v-10.87h2.23v10.89c0,1.68,1.81,2.51,3.43,2.51c1.6,0,3.41-0.85,3.41-2.54v-10.87h2.23v10.89
		c0,3.11-3.02,4.72-5.64,4.72C158.79,358.93,155.82,357.31,155.82,354.19z"/>
	<path class="st0" d="M183.15,347.43c-0.31-1.38-1.79-1.97-3.13-1.95c-1.03,0.02-2.16,0.37-2.78,1.16c-0.31,0.39-0.42,0.9-0.37,1.42
		c0.11,1.57,1.84,1.77,3.48,1.92c2.1,0.26,4.7,0.81,5.29,3.26c0.07,0.33,0.11,0.7,0.11,1.01c0,2.95-2.93,4.66-5.69,4.66
		c-2.36,0-5.23-1.4-5.51-4.13l-0.02-0.42l2.23-0.04l0.02,0.33v-0.09c0.15,1.42,1.88,2.16,3.3,2.16c1.64,0,3.43-0.92,3.43-2.49
		c0-0.15-0.02-0.33-0.07-0.53c-0.26-1.16-1.84-1.36-3.37-1.51c-2.38-0.24-5.18-0.76-5.42-3.96v0.02c-0.09-1.03,0.17-2.06,0.83-2.91
		c1.03-1.33,2.86-2.03,4.63-2.03c2.36,0,4.81,1.22,5.2,4.02L183.15,347.43z"/>
	<path class="st0" d="M201.22,345.38h-2.84v11.35h2.84v2.06h-7.89v-2.06h2.84v-11.35h-2.84v-2.03h7.89V345.38z"/>
	<path class="st0" d="M209.78,358.78v-15.31h1.71l7.46,10.78v-10.78h2.19v15.31h-1.75l-7.39-10.69v10.69H209.78z"/>
	<path class="st0" d="M231.93,356.57h7.11v2.21h-9.34v-15.46h9.31v2.21h-7.08v4.31h6.93v2.23h-6.93V356.57z"/>
	<path class="st0" d="M254.37,347.43c-0.31-1.38-1.79-1.97-3.13-1.95c-1.03,0.02-2.16,0.37-2.78,1.16c-0.31,0.39-0.42,0.9-0.37,1.42
		c0.11,1.57,1.84,1.77,3.48,1.92c2.1,0.26,4.7,0.81,5.29,3.26c0.07,0.33,0.11,0.7,0.11,1.01c0,2.95-2.93,4.66-5.69,4.66
		c-2.36,0-5.23-1.4-5.51-4.13l-0.02-0.42l2.23-0.04l0.02,0.33v-0.09c0.15,1.42,1.88,2.16,3.3,2.16c1.64,0,3.43-0.92,3.43-2.49
		c0-0.15-0.02-0.33-0.07-0.53c-0.26-1.16-1.84-1.36-3.37-1.51c-2.38-0.24-5.18-0.76-5.42-3.96v0.02c-0.09-1.03,0.17-2.06,0.83-2.91
		c1.03-1.33,2.86-2.03,4.63-2.03c2.36,0,4.81,1.22,5.2,4.02L254.37,347.43z"/>
	<path class="st0" d="M272.2,347.43c-0.31-1.38-1.79-1.97-3.13-1.95c-1.03,0.02-2.16,0.37-2.78,1.16c-0.31,0.39-0.42,0.9-0.37,1.42
		c0.11,1.57,1.84,1.77,3.48,1.92c2.1,0.26,4.7,0.81,5.29,3.26c0.07,0.33,0.11,0.7,0.11,1.01c0,2.95-2.93,4.66-5.69,4.66
		c-2.36,0-5.23-1.4-5.51-4.13l-0.02-0.42l2.23-0.04l0.02,0.33v-0.09c0.15,1.42,1.88,2.16,3.3,2.16c1.64,0,3.43-0.92,3.43-2.49
		c0-0.15-0.02-0.33-0.07-0.53c-0.26-1.16-1.84-1.36-3.37-1.51c-2.38-0.24-5.18-0.76-5.42-3.96v0.02c-0.09-1.03,0.17-2.06,0.83-2.91
		c1.03-1.33,2.86-2.03,4.63-2.03c2.36,0,4.81,1.22,5.2,4.02L272.2,347.43z"/>
	<path class="st0" d="M300.28,347.43c-0.31-1.38-1.79-1.97-3.13-1.95c-1.03,0.02-2.16,0.37-2.78,1.16c-0.31,0.39-0.42,0.9-0.37,1.42
		c0.11,1.57,1.84,1.77,3.48,1.92c2.1,0.26,4.7,0.81,5.29,3.26c0.07,0.33,0.11,0.7,0.11,1.01c0,2.95-2.93,4.66-5.69,4.66
		c-2.36,0-5.23-1.4-5.51-4.13l-0.02-0.42l2.23-0.04l0.02,0.33v-0.09c0.15,1.42,1.88,2.16,3.3,2.16c1.64,0,3.43-0.92,3.43-2.49
		c0-0.15-0.02-0.33-0.07-0.53c-0.26-1.16-1.84-1.36-3.37-1.51c-2.38-0.24-5.18-0.76-5.42-3.96v0.02c-0.09-1.03,0.17-2.06,0.83-2.91
		c1.03-1.33,2.86-2.03,4.63-2.03c2.36,0,4.81,1.22,5.2,4.02L300.28,347.43z"/>
	<path class="st0" d="M317.27,343.17c4.42,0,7.96,3.54,7.96,7.96s-3.54,7.94-7.96,7.94c-4.42,0-7.94-3.52-7.94-7.94
		S312.86,343.17,317.27,343.17z M317.27,356.79c3.15,0,5.69-2.51,5.69-5.66c0-3.15-2.54-5.68-5.69-5.68c-3.15,0-5.66,2.54-5.66,5.68
		C311.61,354.27,314.12,356.79,317.27,356.79z"/>
	<path class="st0" d="M335.06,356.57h7.19v2.21h-9.4v-15.31h2.21V356.57z"/>
	<path class="st0" d="M348.86,354.19v-10.87h2.23v10.89c0,1.68,1.81,2.51,3.43,2.51c1.6,0,3.41-0.85,3.41-2.54v-10.87h2.23v10.89
		c0,3.11-3.02,4.72-5.64,4.72C351.83,358.93,348.86,357.31,348.86,354.19z"/>
	<path class="st0" d="M371.43,358.78v-13.36h-4.64v-2.1h11.46v2.1h-4.61v13.36H371.43z"/>
	<path class="st0" d="M392.99,345.38h-2.84v11.35h2.84v2.06h-7.89v-2.06h2.84v-11.35h-2.84v-2.03h7.89V345.38z"/>
	<path class="st0" d="M408.37,343.17c4.42,0,7.96,3.54,7.96,7.96s-3.54,7.94-7.96,7.94c-4.42,0-7.94-3.52-7.94-7.94
		S403.95,343.17,408.37,343.17z M408.37,356.79c3.15,0,5.69-2.51,5.69-5.66c0-3.15-2.54-5.68-5.69-5.68c-3.15,0-5.66,2.54-5.66,5.68
		C402.71,354.27,405.22,356.79,408.37,356.79z"/>
	<path class="st0" d="M423.95,358.78v-15.31h1.71l7.46,10.78v-10.78h2.19v15.31h-1.75l-7.39-10.69v10.69H423.95z"/>
</g>
<polygon class="st1" points="204.96,286.16 230.84,256.09 243.01,256.9 214.75,289.07 241.2,325.27 228.53,324.43 204.63,291.13 "/>
</svg>
